<svg xmlns="http://www.w3.org/2000/svg" xmlns:xlink="http://www.w3.org/1999/xlink" width="500" zoomAndPan="magnify" viewBox="0 0 375 374.999991" height="500" preserveAspectRatio="xMidYMid meet" version="1.0"><defs><g/><clipPath id="59a2c7498f"><path d="M 187.5 0 C 83.945312 0 0 83.945312 0 187.5 C 0 291.054688 83.945312 375 187.5 375 C 291.054688 375 375 291.054688 375 187.5 C 375 83.945312 291.054688 0 187.5 0 Z M 187.5 0 " clip-rule="nonzero"/></clipPath><clipPath id="9f20333a1e"><path d="M 0 0 L 375 0 L 375 375 L 0 375 Z M 0 0 " clip-rule="nonzero"/></clipPath><clipPath id="64f6aed686"><path d="M 187.5 0 C 83.945312 0 0 83.945312 0 187.5 C 0 291.054688 83.945312 375 187.5 375 C 291.054688 375 375 291.054688 375 187.5 C 375 83.945312 291.054688 0 187.5 0 Z M 187.5 0 " clip-rule="nonzero"/></clipPath><clipPath id="eb0da72040"><rect x="0" width="375" y="0" height="375"/></clipPath><clipPath id="44fbe13fbb"><rect x="0" width="305" y="0" height="375"/></clipPath></defs><g clip-path="url(#59a2c7498f)"><g transform="matrix(1, 0, 0, 1, 0, 0)"><g clip-path="url(#eb0da72040)"><g clip-path="url(#9f20333a1e)"><g clip-path="url(#64f6aed686)"><rect x="-82.5" width="540" fill="#fafaff" height="539.999987" y="-82.499998" fill-opacity="1"/></g></g></g></g><path stroke-linecap="butt" transform="matrix(0.75, 0, 0, 0.75, 0.0000045, 0)" fill="none" stroke-linejoin="miter" d="M 249.999994 0 C 111.927078 0 -0.000006 111.927084 -0.000006 250 C -0.000006 388.072917 111.927078 500.000001 249.999994 500.000001 C 388.072911 500.000001 499.999995 388.072917 499.999995 250 C 499.999995 111.927084 388.072911 0 249.999994 0 Z M 249.999994 0 " stroke="#000000" stroke-width="10" stroke-opacity="1" stroke-miterlimit="4"/></g><g transform="matrix(1, 0, 0, 1, 35, 0)"><g clip-path="url(#44fbe13fbb)"><g fill="#000000" fill-opacity="1"><g transform="translate(4.840031, 274.561429)"><g><path d="M 45.152344 -4.550781 L 136.910156 -4.550781 C 137.289062 -4.550781 137.660156 -4.730469 138.015625 -5.085938 C 138.371094 -5.441406 138.546875 -5.808594 138.546875 -6.191406 L 138.546875 -28.402344 C 138.546875 -28.78125 138.371094 -29.152344 138.015625 -29.507812 C 137.660156 -29.863281 137.289062 -30.039062 136.910156 -30.039062 L 45.152344 -30.039062 C 42.253906 -30.039062 39.742188 -31.105469 37.609375 -33.238281 C 35.476562 -35.371094 34.410156 -37.886719 34.410156 -40.78125 L 34.410156 -62.992188 C 34.410156 -65.886719 35.476562 -68.402344 37.609375 -70.535156 C 39.742188 -72.667969 42.253906 -73.734375 45.152344 -73.734375 L 136.910156 -73.734375 C 137.289062 -73.734375 137.660156 -73.910156 138.015625 -74.265625 C 138.371094 -74.621094 138.546875 -74.992188 138.546875 -75.371094 L 138.546875 -132.539062 C 138.546875 -132.921875 138.371094 -133.289062 138.015625 -133.644531 C 137.660156 -134 137.289062 -134.179688 136.910156 -134.179688 L 114.699219 -134.179688 C 111.800781 -134.179688 109.289062 -135.246094 107.15625 -137.378906 C 105.023438 -139.511719 103.957031 -142.023438 103.957031 -144.917969 L 103.957031 -167.128906 C 103.957031 -167.511719 103.777344 -167.882812 103.421875 -168.234375 C 103.066406 -168.589844 102.699219 -168.769531 102.316406 -168.769531 L 45.152344 -168.769531 C 44.769531 -168.769531 44.402344 -168.589844 44.046875 -168.234375 C 43.691406 -167.882812 43.511719 -167.511719 43.511719 -167.128906 L 43.511719 -144.917969 C 43.511719 -142.023438 42.445312 -139.511719 40.3125 -137.378906 C 38.179688 -135.246094 35.667969 -134.179688 32.769531 -134.179688 L 10.558594 -134.179688 C 10.179688 -134.179688 9.808594 -134 9.453125 -133.644531 C 9.097656 -133.289062 8.921875 -132.921875 8.921875 -132.539062 L 8.921875 -40.78125 C 8.921875 -40.398438 9.097656 -40.03125 9.453125 -39.675781 C 9.808594 -39.320312 10.179688 -39.144531 10.558594 -39.144531 L 32.769531 -39.144531 C 35.667969 -39.144531 38.179688 -38.078125 40.3125 -35.945312 C 42.445312 -33.8125 43.511719 -31.296875 43.511719 -28.402344 L 43.511719 -6.191406 C 43.511719 -5.808594 43.691406 -5.441406 44.046875 -5.085938 C 44.402344 -4.730469 44.769531 -4.550781 45.152344 -4.550781 Z M 45.152344 4.550781 C 42.253906 4.550781 39.742188 3.484375 37.609375 1.351562 C 35.476562 -0.78125 34.410156 -3.292969 34.410156 -6.191406 L 34.410156 -28.402344 C 34.410156 -28.78125 34.230469 -29.152344 33.875 -29.507812 C 33.519531 -29.863281 33.152344 -30.039062 32.769531 -30.039062 L 10.558594 -30.039062 C 7.664062 -30.039062 5.148438 -31.105469 3.015625 -33.238281 C 0.882812 -35.371094 -0.183594 -37.886719 -0.183594 -40.78125 L -0.183594 -132.539062 C -0.183594 -135.433594 0.882812 -137.949219 3.015625 -140.082031 C 5.148438 -142.214844 7.664062 -143.28125 10.558594 -143.28125 L 32.769531 -143.28125 C 33.152344 -143.28125 33.519531 -143.457031 33.875 -143.8125 C 34.230469 -144.167969 34.410156 -144.539062 34.410156 -144.917969 L 34.410156 -167.128906 C 34.410156 -170.027344 35.476562 -172.539062 37.609375 -174.671875 C 39.742188 -176.804688 42.253906 -177.871094 45.152344 -177.871094 L 102.316406 -177.871094 C 105.214844 -177.871094 107.726562 -176.804688 109.859375 -174.671875 C 111.992188 -172.539062 113.058594 -170.027344 113.058594 -167.128906 L 113.058594 -144.917969 C 113.058594 -144.539062 113.238281 -144.167969 113.59375 -143.8125 C 113.949219 -143.457031 114.316406 -143.28125 114.699219 -143.28125 L 136.910156 -143.28125 C 139.804688 -143.28125 142.320312 -142.214844 144.453125 -140.082031 C 146.585938 -137.949219 147.652344 -135.433594 147.652344 -132.539062 L 147.652344 -75.371094 C 147.652344 -72.476562 146.585938 -69.964844 144.453125 -67.832031 C 142.320312 -65.699219 139.804688 -64.632812 136.910156 -64.632812 L 45.152344 -64.632812 C 44.769531 -64.632812 44.402344 -64.453125 44.046875 -64.097656 C 43.691406 -63.742188 43.511719 -63.375 43.511719 -62.992188 L 43.511719 -40.78125 C 43.511719 -40.398438 43.691406 -40.03125 44.046875 -39.675781 C 44.402344 -39.320312 44.769531 -39.144531 45.152344 -39.144531 L 136.910156 -39.144531 C 139.804688 -39.144531 142.320312 -38.078125 144.453125 -35.945312 C 146.585938 -33.8125 147.652344 -31.296875 147.652344 -28.402344 L 147.652344 -6.191406 C 147.652344 -3.292969 146.585938 -0.78125 144.453125 1.351562 C 142.320312 3.484375 139.804688 4.550781 136.910156 4.550781 Z M 34.410156 -110.328125 L 34.410156 -132.539062 C 34.410156 -135.433594 35.476562 -137.949219 37.609375 -140.082031 C 39.742188 -142.214844 42.253906 -143.28125 45.152344 -143.28125 L 102.316406 -143.28125 C 105.214844 -143.28125 107.726562 -142.214844 109.859375 -140.082031 C 111.992188 -137.949219 113.058594 -135.433594 113.058594 -132.539062 L 113.058594 -110.328125 C 113.058594 -107.433594 111.992188 -104.917969 109.859375 -102.785156 C 107.726562 -100.652344 105.214844 -99.585938 102.316406 -99.585938 L 45.152344 -99.585938 C 42.253906 -99.585938 39.742188 -100.652344 37.609375 -102.785156 C 35.476562 -104.917969 34.410156 -107.433594 34.410156 -110.328125 Z M 43.511719 -110.328125 C 43.511719 -109.945312 43.691406 -109.578125 44.046875 -109.222656 C 44.402344 -108.867188 44.769531 -108.691406 45.152344 -108.691406 L 102.316406 -108.691406 C 102.699219 -108.691406 103.066406 -108.867188 103.421875 -109.222656 C 103.777344 -109.578125 103.957031 -109.945312 103.957031 -110.328125 L 103.957031 -132.539062 C 103.957031 -132.921875 103.777344 -133.289062 103.421875 -133.644531 C 103.066406 -134 102.699219 -134.179688 102.316406 -134.179688 L 45.152344 -134.179688 C 44.769531 -134.179688 44.402344 -134 44.046875 -133.644531 C 43.691406 -133.289062 43.511719 -132.921875 43.511719 -132.539062 Z M 43.511719 -110.328125 "/></g></g></g><g fill="#000000" fill-opacity="1"><g transform="translate(152.330656, 274.561429)"><g/></g></g><g fill="#000000" fill-opacity="1"><g transform="translate(204.399116, 274.561429)"><g/></g></g><g fill="#000000" fill-opacity="1"><g transform="translate(256.49634, 274.561429)"><g><path d="M 10.558594 -4.550781 L 32.769531 -4.550781 C 33.152344 -4.550781 33.519531 -4.730469 33.875 -5.085938 C 34.230469 -5.441406 34.410156 -5.808594 34.410156 -6.191406 L 34.410156 -28.402344 C 34.410156 -28.78125 34.230469 -29.152344 33.875 -29.507812 C 33.519531 -29.863281 33.152344 -30.039062 32.769531 -30.039062 L 10.558594 -30.039062 C 10.179688 -30.039062 9.808594 -29.863281 9.453125 -29.507812 C 9.097656 -29.152344 8.921875 -28.78125 8.921875 -28.402344 L 8.921875 -6.191406 C 8.921875 -5.808594 9.097656 -5.441406 9.453125 -5.085938 C 9.808594 -4.730469 10.179688 -4.550781 10.558594 -4.550781 Z M 10.558594 4.550781 C 7.664062 4.550781 5.148438 3.484375 3.015625 1.351562 C 0.882812 -0.78125 -0.183594 -3.292969 -0.183594 -6.191406 L -0.183594 -28.402344 C -0.183594 -31.296875 0.882812 -33.8125 3.015625 -35.945312 C 5.148438 -38.078125 7.664062 -39.144531 10.558594 -39.144531 L 32.769531 -39.144531 C 35.667969 -39.144531 38.179688 -38.078125 40.3125 -35.945312 C 42.445312 -33.8125 43.511719 -31.296875 43.511719 -28.402344 L 43.511719 -6.191406 C 43.511719 -3.292969 42.445312 -0.78125 40.3125 1.351562 C 38.179688 3.484375 35.667969 4.550781 32.769531 4.550781 Z M 10.558594 4.550781 "/></g></g></g><g fill="#090c9b" fill-opacity="1"><g transform="translate(4.840031, 274.561429)"><g><path d="M 45.152344 0 L 136.910156 0 C 140.1875 0 143.097656 -2.914062 143.097656 -6.191406 L 143.097656 -28.402344 C 143.097656 -31.679688 140.1875 -34.589844 136.910156 -34.589844 L 45.152344 -34.589844 C 41.875 -34.589844 38.960938 -37.503906 38.960938 -40.78125 L 38.960938 -62.992188 C 38.960938 -66.269531 41.875 -69.183594 45.152344 -69.183594 L 136.910156 -69.183594 C 140.1875 -69.183594 143.097656 -72.09375 143.097656 -75.371094 L 143.097656 -132.539062 C 143.097656 -135.816406 140.1875 -138.730469 136.910156 -138.730469 L 114.699219 -138.730469 C 111.421875 -138.730469 108.507812 -141.640625 108.507812 -144.917969 L 108.507812 -167.128906 C 108.507812 -170.40625 105.59375 -173.320312 102.316406 -173.320312 L 45.152344 -173.320312 C 41.875 -173.320312 38.960938 -170.40625 38.960938 -167.128906 L 38.960938 -144.917969 C 38.960938 -141.640625 36.046875 -138.730469 32.769531 -138.730469 L 10.558594 -138.730469 C 7.28125 -138.730469 4.371094 -135.816406 4.371094 -132.539062 L 4.371094 -40.78125 C 4.371094 -37.503906 7.28125 -34.589844 10.558594 -34.589844 L 32.769531 -34.589844 C 36.046875 -34.589844 38.960938 -31.679688 38.960938 -28.402344 L 38.960938 -6.191406 C 38.960938 -2.914062 41.875 0 45.152344 0 Z M 38.960938 -110.328125 L 38.960938 -132.539062 C 38.960938 -135.816406 41.875 -138.730469 45.152344 -138.730469 L 102.316406 -138.730469 C 105.59375 -138.730469 108.507812 -135.816406 108.507812 -132.539062 L 108.507812 -110.328125 C 108.507812 -107.050781 105.59375 -104.136719 102.316406 -104.136719 L 45.152344 -104.136719 C 41.875 -104.136719 38.960938 -107.050781 38.960938 -110.328125 Z M 38.960938 -110.328125 "/></g></g></g><g fill="#090c9b" fill-opacity="1"><g transform="translate(152.330656, 274.561429)"><g/></g></g><g fill="#090c9b" fill-opacity="1"><g transform="translate(204.399116, 274.561429)"><g/></g></g><g fill="#090c9b" fill-opacity="1"><g transform="translate(256.49634, 274.561429)"><g><path d="M 10.558594 0 L 32.769531 0 C 36.046875 0 38.960938 -2.914062 38.960938 -6.191406 L 38.960938 -28.402344 C 38.960938 -31.679688 36.046875 -34.589844 32.769531 -34.589844 L 10.558594 -34.589844 C 7.28125 -34.589844 4.371094 -31.679688 4.371094 -28.402344 L 4.371094 -6.191406 C 4.371094 -2.914062 7.28125 0 10.558594 0 Z M 10.558594 0 "/></g></g></g></g></g></svg>